<?xml version="1.0" encoding="UTF-8" standalone="no"?>
<!DOCTYPE svg PUBLIC "-//W3C//DTD SVG 1.0//EN" "http://www.w3.org/TR/2001/REC-SVG-20010904/DTD/svg10.dtd">
<!-- Generated by Microsoft Visio 11.0, SVG Export, v1.0 dual_port.svg Page-1 -->
<svg xmlns="http://www.w3.org/2000/svg" xmlns:xlink="http://www.w3.org/1999/xlink" xmlns:ev="http://www.w3.org/2001/xml-events"
		xmlns:v="http://schemas.microsoft.com/visio/2003/SVGExtensions/" width="2.24792in" height="2.15556in"
		viewBox="0 0 161.85 155.2" xml:space="preserve" color-interpolation-filters="sRGB" class="st4">
	<v:documentProperties v:langID="1033" v:viewMarkup="false"/>

	<style type="text/css">
	<![CDATA[
		.st1 {fill:#000000;stroke:none;stroke-linecap:butt;stroke-width:0.75}
		.st2 {fill:none;stroke:#ff0000;stroke-linecap:butt;stroke-width:0.75}
		.st3 {fill:none;stroke:#ff0000;stroke-linecap:round;stroke-linejoin:round;stroke-width:0.75}
		.st4 {fill:none;fill-rule:evenodd;font-size:12;overflow:visible;stroke-linecap:square;stroke-miterlimit:3}
	]]>
	</style>

	<g v:mID="0" v:index="1" v:groupContext="foregroundPage">
		<title>Page-1</title>
		<v:pageProperties v:drawingScale="1" v:pageScale="1" v:drawingUnits="19" v:shadowOffsetX="9" v:shadowOffsetY="-9"/>
		<g id="shape1-1" v:mID="1" v:groupContext="shape" transform="translate(5.6,-112.7)">
			<title>Sheet.1</title>
			<v:userDefs>
				<v:ud v:nameU="msvThemeColors" v:val="VT0(254):26"/>
				<v:ud v:nameU="msvThemeEffects" v:val="VT0(254):26"/>
			</v:userDefs>
			<path d="M146.7 118.4 L2.8 118.4 C1.2 118.4 0 119.7 0 121.2 L0 152.4 C-0 154 1.3 155.2 2.8 155.2 L146.7 155.2 C148.3
						 155.2 149.5 153.9 149.5 152.4 L149.5 121.2 C149.6 119.7 148.3 118.4 146.7 118.4 Z" class="st1"/>
		</g>
		<g id="shape2-3" v:mID="2" v:groupContext="shape" transform="translate(0,-107.1)">
			<title>Sheet.2</title>
			<v:userDefs>
				<v:ud v:nameU="msvThemeColors" v:val="VT0(254):26"/>
				<v:ud v:nameU="msvThemeEffects" v:val="VT0(254):26"/>
			</v:userDefs>
			<path d="M158.8 107.1 L2.8 107.1 C1.2 107.1 0 108.4 0 109.9 L0 152.4 C-0 154 1.3 155.2 2.8 155.2 L158.9 155.2 C160.5
						 155.2 161.7 153.9 161.7 152.4 L161.7 110 C161.7 108.4 160.4 107.1 158.8 107.1 Z" class="st2"/>
		</g>
		<g id="shape9-5" v:mID="9" v:groupContext="shape" transform="translate(8.02965,-107.052)">
			<title>Sheet.9</title>
			<v:userDefs>
				<v:ud v:nameU="msvThemeColors" v:val="VT0(254):26"/>
				<v:ud v:nameU="msvThemeEffects" v:val="VT0(254):26"/>
			</v:userDefs>
			<rect x="0" y="149.549" width="6.7032" height="5.65054" class="st3"/>
		</g>
		<g id="shape10-7" v:mID="10" v:groupContext="shape" transform="translate(0.15,0)">
			<title>Sheet.10</title>
			<v:userDefs>
				<v:ud v:nameU="msvThemeColors" v:val="VT0(254):26"/>
				<v:ud v:nameU="msvThemeEffects" v:val="VT0(254):26"/>
			</v:userDefs>
			<path d="M158.8 155.2 L2.8 155.2 C1.2 155.2 0 153.9 0 152.4 L0 109.8 C-0 108.2 1.3 107 2.8 107 L158.9 107 C160.5 107
						 161.7 108.3 161.7 109.8 L161.7 152.3 C161.7 153.9 160.4 155.2 158.8 155.2 Z" class="st2"/>
		</g>
		<g id="shape11-9" v:mID="11" v:groupContext="shape" transform="translate(5.75,-5.7)">
			<title>Sheet.11</title>
			<v:userDefs>
				<v:ud v:nameU="msvThemeColors" v:val="VT0(254):26"/>
				<v:ud v:nameU="msvThemeEffects" v:val="VT0(254):26"/>
			</v:userDefs>
			<path d="M110.5 155.2 L2.8 155.2 C1.2 155.2 0 153.9 0 152.4 L0 121.2 C0 119.6 1.3 118.4 2.8 118.4 L110.5 118.4 C112.1
						 118.4 113.3 119.7 113.3 121.2 L113.3 152.4 C113.4 153.9 112.1 155.2 110.5 155.2 Z" class="st2"/>
		</g>
		<g id="shape12-11" v:mID="12" v:groupContext="shape" transform="translate(129.25,-5.7)">
			<title>Sheet.12</title>
			<v:userDefs>
				<v:ud v:nameU="msvThemeColors" v:val="VT0(254):26"/>
				<v:ud v:nameU="msvThemeEffects" v:val="VT0(254):26"/>
			</v:userDefs>
			<path d="M23.2 155.2 L2.8 155.2 C1.2 155.2 0 153.9 0 152.4 L0 121.2 C0 119.6 1.3 118.4 2.8 118.4 L23.2 118.4 C24.8 118.4
						 26 119.7 26 121.2 L26 152.4 C26.1 153.9 24.8 155.2 23.2 155.2 Z" class="st2"/>
		</g>
		<g id="group13-13" transform="translate(0,-52.7)" v:mID="13" v:groupContext="group">
			<v:userDefs>
				<v:ud v:nameU="msvThemeColors" v:val="VT0(254):26"/>
				<v:ud v:nameU="msvThemeEffects" v:val="VT0(254):26"/>
			</v:userDefs>
			<title>Sheet.13</title>
			<g id="shape3-14" v:mID="3" v:groupContext="shape">
				<title>Sheet.3</title>
				<v:userDefs>
					<v:ud v:nameU="msvThemeColors" v:val="VT0(254):26"/>
					<v:ud v:nameU="msvThemeEffects" v:val="VT0(254):26"/>
				</v:userDefs>
				<path d="M158.8 155.2 L2.8 155.2 C1.2 155.2 0 153.9 0 152.4 L0 109.8 C-0 108.2 1.3 107 2.8 107 L158.9 107 C160.5
							 107 161.7 108.3 161.7 109.8 L161.7 152.3 C161.7 153.9 160.4 155.2 158.8 155.2 Z" class="st2"/>
			</g>
			<g id="shape4-16" v:mID="4" v:groupContext="shape" transform="translate(5.6,-5.7)">
				<title>Sheet.4</title>
				<v:userDefs>
					<v:ud v:nameU="msvThemeColors" v:val="VT0(254):26"/>
					<v:ud v:nameU="msvThemeEffects" v:val="VT0(254):26"/>
				</v:userDefs>
				<path d="M110.5 155.2 L2.8 155.2 C1.2 155.2 0 153.9 0 152.4 L0 121.2 C0 119.6 1.3 118.4 2.8 118.4 L110.5 118.4 C112.1
							 118.4 113.3 119.7 113.3 121.2 L113.3 152.4 C113.4 153.9 112.1 155.2 110.5 155.2 Z" class="st1"/>
			</g>
			<g id="shape5-18" v:mID="5" v:groupContext="shape" transform="translate(129.1,-5.7)">
				<title>Sheet.5</title>
				<v:userDefs>
					<v:ud v:nameU="msvThemeColors" v:val="VT0(254):26"/>
					<v:ud v:nameU="msvThemeEffects" v:val="VT0(254):26"/>
				</v:userDefs>
				<path d="M23.2 155.2 L2.8 155.2 C1.2 155.2 0 153.9 0 152.4 L0 121.2 C0 119.6 1.3 118.4 2.8 118.4 L23.2 118.4 C24.8
							 118.4 26 119.7 26 121.2 L26 152.4 C26.1 153.9 24.8 155.2 23.2 155.2 Z" class="st1"/>
			</g>
			<g id="shape6-20" v:mID="6" v:groupContext="shape" transform="translate(137.898,-19.848)">
				<title>Sheet.6</title>
				<v:userDefs>
					<v:ud v:nameU="msvThemeColors" v:val="VT0(254):26"/>
					<v:ud v:nameU="msvThemeEffects" v:val="VT0(254):26"/>
				</v:userDefs>
				<ellipse cx="4.25197" cy="150.948" rx="4.25197" ry="4.25197" class="st2"/>
			</g>
			<g id="shape7-22" v:mID="7" v:groupContext="shape" transform="translate(95.3779,-19.848)">
				<title>Sheet.7</title>
				<v:userDefs>
					<v:ud v:nameU="msvThemeColors" v:val="VT0(254):26"/>
					<v:ud v:nameU="msvThemeEffects" v:val="VT0(254):26"/>
				</v:userDefs>
				<ellipse cx="4.25197" cy="150.948" rx="4.25197" ry="4.25197" class="st2"/>
			</g>
		</g>
	</g>
</svg>
