<?xml version="1.0" encoding="UTF-8" standalone="no"?>
<!DOCTYPE svg PUBLIC "-//W3C//DTD SVG 1.0//EN" "http://www.w3.org/TR/2001/REC-SVG-20010904/DTD/svg10.dtd">
<!-- Generated by Microsoft Visio 11.0, SVG Export, v1.0 dual_port_glasses.svg Page-1 -->
<svg xmlns="http://www.w3.org/2000/svg" xmlns:xlink="http://www.w3.org/1999/xlink" xmlns:ev="http://www.w3.org/2001/xml-events"
		xmlns:v="http://schemas.microsoft.com/visio/2003/SVGExtensions/" width="11.4609in" height="1.875in"
		viewBox="0 0 825.188 135" xml:space="preserve" color-interpolation-filters="sRGB" class="st4">
	<v:documentProperties v:langID="1033" v:viewMarkup="false"/>

	<style type="text/css">
	<![CDATA[
		.st1 {fill:#000000;stroke:none;stroke-linecap:butt;stroke-width:0.75}
		.st2 {fill:none;stroke:#ff0000;stroke-linecap:butt;stroke-width:0.75}
		.st3 {fill:none;stroke:#ff0000;stroke-linecap:round;stroke-linejoin:round;stroke-width:0.75}
		.st4 {fill:none;fill-rule:evenodd;font-size:12;overflow:visible;stroke-linecap:square;stroke-miterlimit:3}
	]]>
	</style>

	<g v:mID="0" v:index="1" v:groupContext="foregroundPage">
		<title>Page-1</title>
		<v:pageProperties v:drawingScale="1" v:pageScale="1" v:drawingUnits="19" v:shadowOffsetX="9" v:shadowOffsetY="-9"/>
		<g id="group11-1" transform="translate(0,-44.7372)" v:mID="11" v:groupContext="group">
			<v:userDefs>
				<v:ud v:nameU="msvThemeColors" v:val="VT0(254):26"/>
				<v:ud v:nameU="msvThemeEffects" v:val="VT0(254):26"/>
			</v:userDefs>
			<title>Sheet.11</title>
			<g id="group1-2" transform="translate(199.029,0)" v:mID="1" v:groupContext="group">
				<v:userDefs>
					<v:ud v:nameU="msvThemeColors" v:val="VT0(254):26"/>
					<v:ud v:nameU="msvThemeEffects" v:val="VT0(254):26"/>
				</v:userDefs>
				<title>Sheet.1</title>
				<g id="shape2-3" v:mID="2" v:groupContext="shape" transform="translate(5.6,-5.7)">
					<title>Sheet.2</title>
					<v:userDefs>
						<v:ud v:nameU="msvThemeColors" v:val="VT0(254):26"/>
						<v:ud v:nameU="msvThemeEffects" v:val="VT0(254):26"/>
					</v:userDefs>
					<path d="M110.5 135 L2.8 135 C1.2 135 0 133.7 0 132.2 L0 101 C0 99.4 1.3 98.2 2.8 98.2 L110.5 98.2 C112.1 98.2
								 113.3 99.5 113.3 101 L113.3 132.2 C113.4 133.7 112.1 135 110.5 135 Z" class="st1"/>
				</g>
				<g id="shape3-5" v:mID="3" v:groupContext="shape" transform="translate(129.1,-5.7)">
					<title>Sheet.3</title>
					<v:userDefs>
						<v:ud v:nameU="msvThemeColors" v:val="VT0(254):26"/>
						<v:ud v:nameU="msvThemeEffects" v:val="VT0(254):26"/>
					</v:userDefs>
					<path d="M23.2 135 L2.8 135 C1.2 135 0 133.7 0 132.2 L0 101 C0 99.4 1.3 98.2 2.8 98.2 L23.2 98.2 C24.8 98.2 26
								 99.5 26 101 L26 132.2 C26.1 133.7 24.8 135 23.2 135 Z" class="st1"/>
				</g>
				<g id="shape4-7" v:mID="4" v:groupContext="shape" transform="translate(137.898,-19.848)">
					<title>Sheet.4</title>
					<v:userDefs>
						<v:ud v:nameU="msvThemeColors" v:val="VT0(254):26"/>
						<v:ud v:nameU="msvThemeEffects" v:val="VT0(254):26"/>
					</v:userDefs>
					<ellipse cx="4.25197" cy="130.748" rx="4.25197" ry="4.25197" class="st2"/>
				</g>
				<g id="shape5-9" v:mID="5" v:groupContext="shape" transform="translate(95.3779,-19.848)">
					<title>Sheet.5</title>
					<v:userDefs>
						<v:ud v:nameU="msvThemeColors" v:val="VT0(254):26"/>
						<v:ud v:nameU="msvThemeEffects" v:val="VT0(254):26"/>
					</v:userDefs>
					<ellipse cx="4.25197" cy="130.748" rx="4.25197" ry="4.25197" class="st2"/>
				</g>
			</g>
			<g id="shape6-11" v:mID="6" v:groupContext="shape" transform="translate(0,-1.89847)">
				<title>path60.56</title>
				<v:userDefs>
					<v:ud v:nameU="msvThemeColors" v:val="VT0(254):26"/>
					<v:ud v:nameU="msvThemeEffects" v:val="VT0(254):26"/>
				</v:userDefs>
				<path d="M0 74.21 C21.12 83.9 41.08 96.65 63.35 103.28 C92.47 111.96 122.84 116.18 153 121.8 C182.25 126.3 199.03
							 134.1 205.87 134.17 C265.5 135.3 276.75 135.3 352.12 134.17 L389.81 132.49 C399.37 131.7 400.5 131.42
							 403.59 130.57 L405.56 130.01 C408.37 128.32 410.06 127.2 411.19 124.95 L411.19 114.82 L411.19 101.89
							 C403.87 96.26 403.31 96.82 398.25 94.57 L391.5 92.89 L383.62 91.42 L383.62 91.42 L212.62 91.42 C198
							 90.86 207.43 94.4 193.5 103.8 C184.5 108.3 189 108.3 168.75 112.8 C148.5 112.8 141.75 110.55 130.5 106.05
							 C97.24 92.63 76.5 81.3 58.5 74.55 C51.75 71.17 40.5 67.8 31.5 67.8 C20.25 67.8 18 67.8 11.25 70.05 L0
							 74.21 Z" class="st2"/>
			</g>
			<g id="group7-13" transform="translate(202.5,-46.6)" v:mID="7" v:groupContext="group">
				<v:userDefs>
					<v:ud v:nameU="msvThemeColors" v:val="VT0(254):26"/>
					<v:ud v:nameU="msvThemeEffects" v:val="VT0(254):26"/>
				</v:userDefs>
				<title>Sheet.7</title>
				<g id="shape8-14" v:mID="8" v:groupContext="shape" transform="translate(0.00397976,0)">
					<title>path60.50</title>
					<v:userDefs>
						<v:ud v:nameU="msvThemeColors" v:val="VT0(254):26"/>
						<v:ud v:nameU="msvThemeEffects" v:val="VT0(254):26"/>
					</v:userDefs>
					<path d="M0 129.67 C0.05 133.75 0.19 133.78 3.37 134.17 C63 135.3 74.25 135.3 149.62 134.17 L156.28 133.88 L156.16
								 91.42 L156.16 91.42 L10.13 91.42 C0.86 90.86 0.79 93.18 0 94.41 L0 129.67 Z" class="st2"/>
				</g>
				<g id="shape9-16" v:mID="9" v:groupContext="shape" transform="translate(2.13329,-3.8014)">
					<title>Sheet.9</title>
					<v:userDefs>
						<v:ud v:nameU="msvThemeColors" v:val="VT0(254):26"/>
						<v:ud v:nameU="msvThemeEffects" v:val="VT0(254):26"/>
					</v:userDefs>
					<path d="M146.7 98.2 L2.8 98.2 C1.2 98.2 0 99.5 0 101 L0 132.2 C0 133.8 1.3 135 2.8 135 L146.7 135 C148.3 135
								 149.5 133.7 149.5 132.2 L149.5 101 C149.6 99.5 148.3 98.2 146.7 98.2 Z" class="st1"/>
				</g>
				<g id="shape10-18" v:mID="10" v:groupContext="shape" transform="translate(-1.17406E-013,-6.53499)">
					<title>Sheet.10</title>
					<v:userDefs>
						<v:ud v:nameU="msvThemeColors" v:val="VT0(254):26"/>
						<v:ud v:nameU="msvThemeEffects" v:val="VT0(254):26"/>
					</v:userDefs>
					<rect x="0" y="132.047" width="2.1312" height="2.95313" class="st3"/>
				</g>
			</g>
		</g>
		<g id="group13-20" transform="translate(626.158,-44.7372) scale(-1,1)" v:mID="13" v:groupContext="group">
			<v:userDefs>
				<v:ud v:nameU="msvThemeColors" v:val="VT0(254):26"/>
				<v:ud v:nameU="msvThemeEffects" v:val="VT0(254):26"/>
			</v:userDefs>
			<title>Sheet.13</title>
			<g id="shape14-21" v:mID="14" v:groupContext="shape" transform="translate(5.6,-5.7)">
				<title>Sheet.14</title>
				<v:userDefs>
					<v:ud v:nameU="msvThemeColors" v:val="VT0(254):26"/>
					<v:ud v:nameU="msvThemeEffects" v:val="VT0(254):26"/>
				</v:userDefs>
				<path d="M110.5 135 L2.8 135 C1.2 135 0 133.7 0 132.2 L0 101 C0 99.4 1.3 98.2 2.8 98.2 L110.5 98.2 C112.1 98.2 113.3
							 99.5 113.3 101 L113.3 132.2 C113.4 133.7 112.1 135 110.5 135 Z" class="st1"/>
			</g>
			<g id="shape15-23" v:mID="15" v:groupContext="shape" transform="translate(129.1,-5.7)">
				<title>Sheet.15</title>
				<v:userDefs>
					<v:ud v:nameU="msvThemeColors" v:val="VT0(254):26"/>
					<v:ud v:nameU="msvThemeEffects" v:val="VT0(254):26"/>
				</v:userDefs>
				<path d="M23.2 135 L2.8 135 C1.2 135 0 133.7 0 132.2 L0 101 C0 99.4 1.3 98.2 2.8 98.2 L23.2 98.2 C24.8 98.2 26 99.5
							 26 101 L26 132.2 C26.1 133.7 24.8 135 23.2 135 Z" class="st1"/>
			</g>
			<g id="shape16-25" v:mID="16" v:groupContext="shape" transform="translate(137.898,-19.848)">
				<title>Sheet.16</title>
				<v:userDefs>
					<v:ud v:nameU="msvThemeColors" v:val="VT0(254):26"/>
					<v:ud v:nameU="msvThemeEffects" v:val="VT0(254):26"/>
				</v:userDefs>
				<ellipse cx="4.25197" cy="130.748" rx="4.25197" ry="4.25197" class="st2"/>
			</g>
			<g id="shape17-27" v:mID="17" v:groupContext="shape" transform="translate(95.3779,-19.848)">
				<title>Sheet.17</title>
				<v:userDefs>
					<v:ud v:nameU="msvThemeColors" v:val="VT0(254):26"/>
					<v:ud v:nameU="msvThemeEffects" v:val="VT0(254):26"/>
				</v:userDefs>
				<ellipse cx="4.25197" cy="130.748" rx="4.25197" ry="4.25197" class="st2"/>
			</g>
		</g>
		<g id="shape18-29" v:mID="18" v:groupContext="shape" transform="translate(825.188,-46.6357) scale(-1,1)">
			<title>path60.56</title>
			<v:userDefs>
				<v:ud v:nameU="msvThemeColors" v:val="VT0(254):26"/>
				<v:ud v:nameU="msvThemeEffects" v:val="VT0(254):26"/>
			</v:userDefs>
			<path d="M0 74.21 C21.12 83.9 41.08 96.65 63.35 103.28 C92.47 111.96 122.84 116.18 153 121.8 C182.25 126.3 199.03 134.1
						 205.87 134.17 C265.5 135.3 276.75 135.3 352.12 134.17 L389.81 132.49 C399.37 131.7 400.5 131.42 403.59 130.57
						 L405.56 130.01 C408.37 128.32 410.06 127.2 411.19 124.95 L411.19 114.82 L411.19 101.89 C403.87 96.26 403.31
						 96.82 398.25 94.57 L391.5 92.89 L383.62 91.42 L383.62 91.42 L212.62 91.42 C198 90.86 207.43 94.4 193.5 103.8
						 C184.5 108.3 189 108.3 168.75 112.8 C148.5 112.8 141.75 110.55 130.5 106.05 C97.24 92.63 76.5 81.3 58.5
						 74.55 C51.75 71.17 40.5 67.8 31.5 67.8 C20.25 67.8 18 67.8 11.25 70.05 L0 74.21 Z" class="st2"/>
		</g>
		<g id="group19-31" transform="translate(622.688,-91.3372) scale(-1,1)" v:mID="19" v:groupContext="group">
			<v:userDefs>
				<v:ud v:nameU="msvThemeColors" v:val="VT0(254):26"/>
				<v:ud v:nameU="msvThemeEffects" v:val="VT0(254):26"/>
			</v:userDefs>
			<title>Sheet.19</title>
			<g id="shape20-32" v:mID="20" v:groupContext="shape" transform="translate(0.00397976,0)">
				<title>path60.50</title>
				<v:userDefs>
					<v:ud v:nameU="msvThemeColors" v:val="VT0(254):26"/>
					<v:ud v:nameU="msvThemeEffects" v:val="VT0(254):26"/>
				</v:userDefs>
				<path d="M0 129.67 C0.05 133.75 0.19 133.78 3.37 134.17 C63 135.3 74.25 135.3 149.62 134.17 L156.28 133.88 L156.16
							 91.42 L156.16 91.42 L10.13 91.42 C0.86 90.86 0.79 93.18 0 94.41 L0 129.67 Z" class="st2"/>
			</g>
			<g id="shape21-34" v:mID="21" v:groupContext="shape" transform="translate(2.13329,-3.8014)">
				<title>Sheet.21</title>
				<v:userDefs>
					<v:ud v:nameU="msvThemeColors" v:val="VT0(254):26"/>
					<v:ud v:nameU="msvThemeEffects" v:val="VT0(254):26"/>
				</v:userDefs>
				<path d="M146.7 98.2 L2.8 98.2 C1.2 98.2 0 99.5 0 101 L0 132.2 C0 133.8 1.3 135 2.8 135 L146.7 135 C148.3 135 149.5
							 133.7 149.5 132.2 L149.5 101 C149.6 99.5 148.3 98.2 146.7 98.2 Z" class="st1"/>
			</g>
			<g id="shape22-36" v:mID="22" v:groupContext="shape" transform="translate(-1.17406E-013,-6.53499)">
				<title>Sheet.22</title>
				<v:userDefs>
					<v:ud v:nameU="msvThemeColors" v:val="VT0(254):26"/>
					<v:ud v:nameU="msvThemeEffects" v:val="VT0(254):26"/>
				</v:userDefs>
				<rect x="0" y="132.047" width="2.1312" height="2.95313" class="st3"/>
			</g>
		</g>
		<g id="group23-38" transform="translate(468,-1.33721)" v:mID="23" v:groupContext="group">
			<v:userDefs>
				<v:ud v:nameU="msvThemeColors" v:val="VT0(254):26"/>
				<v:ud v:nameU="msvThemeEffects" v:val="VT0(254):26"/>
			</v:userDefs>
			<title>Sheet.23</title>
			<g id="group24-39" transform="translate(2.12931,-3.80153)" v:mID="24" v:groupContext="group">
				<v:userDefs>
					<v:ud v:nameU="msvThemeColors" v:val="VT0(254):26"/>
					<v:ud v:nameU="msvThemeEffects" v:val="VT0(254):26"/>
				</v:userDefs>
				<title>Sheet.24</title>
				<g id="shape25-40" v:mID="25" v:groupContext="shape">
					<title>Sheet.25</title>
					<v:userDefs>
						<v:ud v:nameU="msvThemeColors" v:val="VT0(254):26"/>
						<v:ud v:nameU="msvThemeEffects" v:val="VT0(254):26"/>
					</v:userDefs>
					<path d="M110.5 135 L2.8 135 C1.2 135 0 133.7 0 132.2 L0 101 C0 99.4 1.3 98.2 2.8 98.2 L110.5 98.2 C112.1 98.2
								 113.3 99.5 113.3 101 L113.3 132.2 C113.4 133.7 112.1 135 110.5 135 Z" class="st2"/>
				</g>
				<g id="shape26-42" v:mID="26" v:groupContext="shape" transform="translate(123.5,0)">
					<title>Sheet.26</title>
					<v:userDefs>
						<v:ud v:nameU="msvThemeColors" v:val="VT0(254):26"/>
						<v:ud v:nameU="msvThemeEffects" v:val="VT0(254):26"/>
					</v:userDefs>
					<path d="M23.2 135 L2.8 135 C1.2 135 0 133.7 0 132.2 L0 101 C0 99.4 1.3 98.2 2.8 98.2 L23.2 98.2 C24.8 98.2 26
								 99.5 26 101 L26 132.2 C26.1 133.7 24.8 135 23.2 135 Z" class="st2"/>
				</g>
			</g>
			<g id="shape27-44" v:mID="27" v:groupContext="shape">
				<title>path60.50</title>
				<v:userDefs>
					<v:ud v:nameU="msvThemeColors" v:val="VT0(254):26"/>
					<v:ud v:nameU="msvThemeEffects" v:val="VT0(254):26"/>
				</v:userDefs>
				<path d="M0 129.67 C0.05 133.75 0.19 133.78 3.37 134.17 C63 135.3 74.25 135.3 149.62 134.17 L156.28 133.88 L156.16
							 91.42 L156.16 91.42 L10.13 91.42 C0.86 90.86 0.79 93.18 0 94.41 L0 129.67 Z" class="st2"/>
			</g>
		</g>
		<g id="group28-46" transform="translate(200.86,0)" v:mID="28" v:groupContext="group">
			<v:userDefs>
				<v:ud v:nameU="msvThemeColors" v:val="VT0(254):26"/>
				<v:ud v:nameU="msvThemeEffects" v:val="VT0(254):26"/>
			</v:userDefs>
			<title>Sheet.28</title>
			<g id="group29-47" transform="translate(2.12931,-3.80153)" v:mID="29" v:groupContext="group">
				<v:userDefs>
					<v:ud v:nameU="msvThemeColors" v:val="VT0(254):26"/>
					<v:ud v:nameU="msvThemeEffects" v:val="VT0(254):26"/>
				</v:userDefs>
				<title>Sheet.29</title>
				<g id="shape30-48" v:mID="30" v:groupContext="shape">
					<title>Sheet.30</title>
					<v:userDefs>
						<v:ud v:nameU="msvThemeColors" v:val="VT0(254):26"/>
						<v:ud v:nameU="msvThemeEffects" v:val="VT0(254):26"/>
					</v:userDefs>
					<path d="M110.5 135 L2.8 135 C1.2 135 0 133.7 0 132.2 L0 101 C0 99.4 1.3 98.2 2.8 98.2 L110.5 98.2 C112.1 98.2
								 113.3 99.5 113.3 101 L113.3 132.2 C113.4 133.7 112.1 135 110.5 135 Z" class="st2"/>
				</g>
				<g id="shape31-50" v:mID="31" v:groupContext="shape" transform="translate(123.5,0)">
					<title>Sheet.31</title>
					<v:userDefs>
						<v:ud v:nameU="msvThemeColors" v:val="VT0(254):26"/>
						<v:ud v:nameU="msvThemeEffects" v:val="VT0(254):26"/>
					</v:userDefs>
					<path d="M23.2 135 L2.8 135 C1.2 135 0 133.7 0 132.2 L0 101 C0 99.4 1.3 98.2 2.8 98.2 L23.2 98.2 C24.8 98.2 26
								 99.5 26 101 L26 132.2 C26.1 133.7 24.8 135 23.2 135 Z" class="st2"/>
				</g>
			</g>
			<g id="shape32-52" v:mID="32" v:groupContext="shape">
				<title>path60.50</title>
				<v:userDefs>
					<v:ud v:nameU="msvThemeColors" v:val="VT0(254):26"/>
					<v:ud v:nameU="msvThemeEffects" v:val="VT0(254):26"/>
				</v:userDefs>
				<path d="M0 129.67 C0.05 133.75 0.19 133.78 3.37 134.17 C63 135.3 74.25 135.3 149.62 134.17 L156.28 133.88 L156.16
							 91.42 L156.16 91.42 L10.13 91.42 C0.86 90.86 0.79 93.18 0 94.41 L0 129.67 Z" class="st2"/>
			</g>
		</g>
	</g>
</svg>
