<?xml version="1.0" encoding="UTF-8" standalone="no"?>
<!DOCTYPE svg PUBLIC "-//W3C//DTD SVG 1.0//EN" "http://www.w3.org/TR/2001/REC-SVG-20010904/DTD/svg10.dtd">
<!-- Generated by Microsoft Visio 11.0, SVG Export, v1.0 tiny_long.svg Page-1 -->
<svg xmlns="http://www.w3.org/2000/svg" xmlns:xlink="http://www.w3.org/1999/xlink" xmlns:ev="http://www.w3.org/2001/xml-events"
		xmlns:v="http://schemas.microsoft.com/visio/2003/SVGExtensions/" width="1.6875in" height="0.623498in"
		viewBox="0 0 121.5 44.8919" xml:space="preserve" color-interpolation-filters="sRGB" class="st3">
	<v:documentProperties v:langID="1033" v:viewMarkup="false"/>

	<style type="text/css">
	<![CDATA[
		.st1 {fill:none;stroke:#ff0000;stroke-linecap:butt;stroke-width:0.75}
		.st2 {fill:#000000;stroke:none;stroke-linecap:butt;stroke-width:0.75}
		.st3 {fill:none;fill-rule:evenodd;font-size:12;overflow:visible;stroke-linecap:square;stroke-miterlimit:3}
	]]>
	</style>

	<g v:mID="0" v:index="1" v:groupContext="foregroundPage">
		<title>Page-1</title>
		<v:pageProperties v:drawingScale="1" v:pageScale="1" v:drawingUnits="19" v:shadowOffsetX="9" v:shadowOffsetY="-9"
				v:shadowType="1"/>
		<g id="group1-1" v:mID="1" v:groupContext="group">
			<v:userDefs>
				<v:ud v:nameU="msvThemeColors" v:val="VT0(254):26"/>
				<v:ud v:nameU="msvThemeEffects" v:val="VT0(254):26"/>
			</v:userDefs>
			<title>Sheet.1</title>
			<g id="shape2-2" v:mID="2" v:groupContext="shape">
				<title>Sheet.2</title>
				<v:userDefs>
					<v:ud v:nameU="msvThemeColors" v:val="VT0(254):26"/>
					<v:ud v:nameU="msvThemeEffects" v:val="VT0(254):26"/>
				</v:userDefs>
				<path d="M119.32 44.89 L2.1 44.89 C0.9 44.89 0 43.68 0 42.28 L0 2.61 C0 1.12 0.98 -0 2.1 -0 L119.4 -0 C120.6 -0 121.5
							 1.21 121.5 2.61 L121.5 42.19 C121.5 43.68 120.52 44.89 119.32 44.89 Z" class="st1"/>
			</g>
			<g id="shape3-4" v:mID="3" v:groupContext="shape" transform="translate(4.05,-4.04599)">
				<title>Sheet.3</title>
				<v:userDefs>
					<v:ud v:nameU="msvThemeColors" v:val="VT0(254):26"/>
					<v:ud v:nameU="msvThemeEffects" v:val="VT0(254):26"/>
				</v:userDefs>
				<path d="M110.5 44.89 L2.8 44.89 C1.2 44.89 0 43.59 0 42.09 L0 10.89 C-0 9.29 1.3 8.09 2.8 8.09 L110.5 8.09 C112.1
							 8.09 113.3 9.39 113.3 10.89 L113.3 42.09 C113.4 43.59 112.1 44.89 110.5 44.89 Z" class="st2"/>
			</g>
			<g id="shape8-6" v:mID="8" v:groupContext="shape" transform="translate(56.4981,-18.194)">
				<title>Sheet.8</title>
				<v:userDefs>
					<v:ud v:nameU="msvThemeColors" v:val="VT0(254):26"/>
					<v:ud v:nameU="msvThemeEffects" v:val="VT0(254):26"/>
				</v:userDefs>
				<ellipse cx="4.25197" cy="40.6399" rx="4.25197" ry="4.25196" class="st1"/>
			</g>
		</g>
	</g>
</svg>
